<?xml version="1.0" encoding="UTF-8"?>
<svg version="1.1" xmlns="http://www.w3.org/2000/svg" width="276" height="100">
<path d="M0 0 C3.5625 0.25 3.5625 0.25 6.5625 2.25 C6.5625 3.24 6.5625 4.23 6.5625 5.25 C8.480625 5.188125 8.480625 5.188125 10.4375 5.125 C18.32458327 5.1374206 27.38251372 6.10935477 33.22265625 11.89453125 C38.70049345 18.04576688 38.99179843 23.26310641 38.84765625 31.375 C38.06259513 42.04322781 32.01016226 50.0742452 24.765625 57.5234375 C23.93692902 58.37634872 23.93692902 58.37634872 23.0914917 59.24649048 C21.92789501 60.43757903 20.76127813 61.6257239 19.59179688 62.81103516 C18.40370756 64.0222733 17.22463531 65.24242122 16.0546875 66.47119141 C14.35264587 68.25862134 12.62556333 70.01798948 10.890625 71.7734375 C10.37574524 72.32333344 9.86086548 72.87322937 9.3303833 73.43978882 C6.39066889 76.34557851 4.29709673 77.59197506 0.22949219 77.65478516 C-3.4375 77.25 -3.4375 77.25 -4.4375 76.25 C-4.4375 73.91666667 -4.4375 71.58333333 -4.4375 69.25 C-4.7675 68.92 -5.0975 68.59 -5.4375 68.25 C-5.5600355 66.71617321 -5.61527938 65.17689481 -5.64282227 63.63842773 C-5.66276749 62.65748642 -5.68271271 61.6765451 -5.70326233 60.6658783 C-5.71997482 59.5992244 -5.73668732 58.5325705 -5.75390625 57.43359375 C-5.77468735 56.3474025 -5.79546844 55.26121124 -5.81687927 54.1421051 C-5.88249442 50.65730373 -5.94131511 47.17242432 -6 43.6875 C-6.04317385 41.33137199 -6.08678776 38.97525201 -6.13085938 36.61914062 C-6.23818792 30.82951063 -6.33993165 25.03980225 -6.4375 19.25 C-7.4275 19.91 -8.4175 20.57 -9.4375 21.25 C-11.91796875 21.4453125 -11.91796875 21.4453125 -14.625 21.375 C-15.52605469 21.35695313 -16.42710938 21.33890625 -17.35546875 21.3203125 C-18.04253906 21.29710938 -18.72960938 21.27390625 -19.4375 21.25 C-19.70060373 16.86493788 -19.70060373 16.86493788 -18.4375 14.25 C-14.78809596 11.56249958 -10.10019114 8.25 -5.4375 8.25 C-5.47875 7.30125 -5.52 6.3525 -5.5625 5.375 C-5.38142742 0.84818559 -4.46849518 0.32498147 0 0 Z M6.5625 14.25 C6.5625 29.43 6.5625 44.61 6.5625 60.25 C15.9159714 55.5732643 23.91071648 45.32623366 27.625 35.625 C28.88829216 31.04761671 28.86075197 26.82055832 27.5625 22.25 C25.03322742 17.94086894 22.26924388 15.87596607 17.5625 14.25 C13.9325 14.25 10.3025 14.25 6.5625 14.25 Z " fill="#000000" transform="translate(28.4375,15.75)"/>
<path d="M0 0 C3.70305325 2.46870217 3.88368502 3.77395044 5 8 C5.92217965 13.50586605 6.28283175 18.95334439 6.53515625 24.51953125 C6.57813339 25.41814377 6.62111053 26.31675629 6.66539001 27.24259949 C6.75517365 29.13602289 6.84332506 31.02952432 6.92993164 32.9230957 C7.06162145 35.79335157 7.19935234 38.66327056 7.33789062 41.53320312 C7.42484057 43.38279555 7.51144041 45.23240446 7.59765625 47.08203125 C7.63826675 47.92715775 7.67887726 48.77228424 7.72071838 49.64302063 C8.28220697 62.11196878 8.28220697 62.11196878 8 67 C6.13381448 68.86618552 3.50222346 68.3485526 1.0078125 68.5234375 C-1 68 -1 68 -2.56616211 65.81225586 C-4.05675372 62.88868616 -4.56883894 60.72275378 -4.94921875 57.48046875 C-5.07490234 56.45888672 -5.20058594 55.43730469 -5.33007812 54.38476562 C-5.44802734 53.32966797 -5.56597656 52.27457031 -5.6875 51.1875 C-5.88182617 49.57584961 -5.88182617 49.57584961 -6.08007812 47.93164062 C-6.39721684 45.288818 -6.70347556 42.64520143 -7 40 C-7.85271484 41.61068359 -7.85271484 41.61068359 -8.72265625 43.25390625 C-17.81646651 60.14241103 -17.81646651 60.14241103 -23 63 C-26.13693259 63.68423026 -28.88710335 63.83251887 -32 63 C-33.61474609 61.71362305 -33.61474609 61.71362305 -35 60 C-35.13795417 56.96200923 -35.09925404 54.20155661 -34.875 51.1875 C-34.81932861 50.33744385 -34.76365723 49.4873877 -34.70629883 48.61157227 C-33.59813188 33.82720689 -30.69175511 18.9428335 -20 8 C-13.99464468 3.18953527 -7.92540601 -0.68916574 0 0 Z M-11 15 C-16.65284656 21.24788304 -19.31899718 27.1041578 -20.6875 35.375 C-20.81705078 36.11105469 -20.94660156 36.84710938 -21.08007812 37.60546875 C-21.39508916 39.40219837 -21.69872815 41.20091563 -22 43 C-14.30735314 35.80449699 -10.45338163 27.49980651 -10.0078125 16.984375 C-10.00523438 16.32953125 -10.00265625 15.6746875 -10 15 C-10.33 15 -10.66 15 -11 15 Z " fill="#000000" transform="translate(105,25)"/>
<path d="M0 0 C2.45391569 3.68087353 2.22802759 6.44355588 2.125 10.6875 C2.11597656 11.38939453 2.10695312 12.09128906 2.09765625 12.81445312 C2.07413704 14.54311525 2.03826713 16.27160145 2 18 C2.38671875 16.95199219 2.7734375 15.90398438 3.171875 14.82421875 C3.69726697 13.44506482 4.22334476 12.06617202 4.75 10.6875 C5.00265625 9.99720703 5.2553125 9.30691406 5.515625 8.59570312 C7.03494317 4.66446737 8.2267678 2.04162865 12 0 C14.4375 -0.5625 14.4375 -0.5625 17 0 C23.38951279 5.14277859 24.25693106 13.3820838 26 21 C26.82879485 24.58440142 27.66300417 28.16750531 28.5 31.75 C28.70834473 32.65314941 28.91668945 33.55629883 29.13134766 34.48681641 C30.46782549 40.1566908 32.19551108 45.47462383 34.3515625 50.890625 C35.25190878 53.81946231 34.9354255 56.11577136 34 59 C30.03817392 59.38841432 27.7304027 59.45862495 24.3125 57.3125 C17.23388687 48.98471985 16.20192069 33.43569858 14 23 C11.80595383 26.29106926 10.64717287 29.5814118 9.3984375 33.29296875 C9.1571109 33.99899734 8.9157843 34.70502594 8.66714478 35.43244934 C7.89901148 37.6827652 7.13693648 39.93507934 6.375 42.1875 C5.854565 43.71563051 5.33373625 45.24362698 4.8125 46.77148438 C3.53709633 50.51278422 2.26712133 54.25588736 1 58 C-1.6875 58.6875 -1.6875 58.6875 -5 59 C-6.65 58.01 -8.3 57.02 -10 56 C-9.67 37.52 -9.34 19.04 -9 0 C-5.85135005 -1.57432497 -3.35512575 -0.71895552 0 0 Z " fill="#000000" transform="translate(128,34)"/>
<path d="M0 0 C4.91943984 2.65649752 8.48364345 5.86619645 10.9375 10.9375 C11.04437621 14.46441482 9.98600636 16.04936198 8 19 C4.26719034 22.34507063 0.33654583 25.53906401 -3.91796875 28.19921875 C-6.76600607 30.09087811 -7.91877589 31.69994393 -8.8046875 34.97265625 C-9.31846128 37.98139998 -9.71891704 40.9613963 -10 44 C-8.13155131 42.37685044 -6.26812939 40.74842869 -4.41015625 39.11328125 C-2.80262203 37.70375772 -1.18534857 36.30526526 0.44140625 34.91796875 C6.71374239 29.47016506 11.88122802 23.5296408 17 17 C18 16 18 16 19.8125 15.8671875 C20.534375 15.86976562 21.25625 15.87234375 22 15.875 C22.721875 15.87242188 23.44375 15.86984375 24.1875 15.8671875 C26 16 26 16 27 17 C27.79992191 20.50574471 27.84646509 23.50028761 27 27 C24.11574934 30.57785803 20.63622999 33.21690552 17 36 C15.59386947 37.19633485 14.19700243 38.40370022 12.8125 39.625 C12.16796875 40.181875 11.5234375 40.73875 10.859375 41.3125 C8.99382547 43.00560378 7.28708666 44.78966006 5.5625 46.625 C0.88629638 51.33308683 -4.48314053 55.23439637 -11.3125 55.4375 C-16.80883679 54.78539225 -16.80883679 54.78539225 -19 53 C-21.81090428 48.3791476 -22.29642748 45.11321535 -22.0625 39.75 C-21.97001097 37.50180521 -21.93367983 35.24911886 -22 33 C-22.66 32.34 -23.32 31.68 -24 31 C-23.875 28.5 -23.875 28.5 -23 26 C-22.07380859 25.68289062 -22.07380859 25.68289062 -21.12890625 25.359375 C-17.66304305 23.14631006 -17.20562785 19.56042616 -16.0625 15.75 C-14.25113649 9.73276395 -12.41041283 5.55907843 -8 1 C-5.13391871 -0.43304064 -3.18699217 -0.30644155 0 0 Z M-1 9 C-2.485 10.98 -2.485 10.98 -4 13 C-3.67 13.66 -3.34 14.32 -3 15 C-1.68 13.68 -0.36 12.36 1 11 C0.34 10.34 -0.32 9.68 -1 9 Z " fill="#000000" transform="translate(241,38)"/>
<path d="M0 0 C3.625 -0.1875 3.625 -0.1875 7 0 C9.91859691 4.95300763 10.51960526 8.84461923 10.6875 14.4375 C10.73765259 15.60708252 10.73765259 15.60708252 10.78881836 16.80029297 C11.0777732 24.19903792 11.09826952 31.59702915 11 39 C12.12277344 38.4946875 13.24554688 37.989375 14.40234375 37.46875 C15.91369013 36.81164288 17.42543034 36.15544107 18.9375 35.5 C19.67291016 35.16613281 20.40832031 34.83226562 21.16601562 34.48828125 C26.26204252 32.30744878 31.4398153 30.74658622 37 32 C39 35 39 35 39.1875 37.4375 C37.19149437 41.74467005 33.28506568 42.42623232 29 44 C27.61413127 44.52615457 26.22874987 45.0535938 24.84375 45.58203125 C20.90422027 47.07790558 16.95455257 48.54433648 13 50 C12.75487105 56.4278259 13.12162154 62.63081208 14 69 C14.8644891 75.31788094 15.551954 81.62043865 15 88 C14 89 14 89 10.625 89.25 C7 89 7 89 5.125 87.6875 C3.08296174 84.62444262 2.79537533 81.6471231 2.5 78.0703125 C2.4175 77.10996094 2.335 76.14960937 2.25 75.16015625 C2.12625 73.65775391 2.12625 73.65775391 2 72.125 C1.83590948 70.14822197 1.66932469 68.17164907 1.5 66.1953125 C1.4278125 65.31891113 1.355625 64.44250977 1.28125 63.53955078 C0.99815244 60.98331739 0.54153126 58.51304349 0 56 C-0.99 56.495 -0.99 56.495 -2 57 C-4.875 57.3125 -4.875 57.3125 -8 57 C-10.375 55 -10.375 55 -12 53 C-11.5625 50.75 -11.5625 50.75 -10 48 C-7.11656315 46.35006265 -4.11359044 45.14677508 -1 44 C-0.88229416 32.6740822 -1.05315272 21.42955847 -1.82006836 10.12451172 C-1.89753296 8.79444092 -1.89753296 8.79444092 -1.9765625 7.4375 C-2.02893066 6.65246094 -2.08129883 5.86742187 -2.13525391 5.05859375 C-2 3 -2 3 0 0 Z " fill="#000000" transform="translate(177,4)"/>
</svg>
